<?xml version="1.0" encoding="UTF-8"?>
<svg id="Layer_2" data-name="Layer 2" xmlns="http://www.w3.org/2000/svg" viewBox="0 0 286.21 75.91">
  <g id="Layer_1-2" data-name="Layer 1">
    <g>
      <g>
        <path d="M71.25,75.41c-3.37-5.22-6.74-10.43-10.11-15.64q-.32-.5,.25-.71c2.29-.83,4.58-1.65,6.86-2.48,.5-.18,.5-.18,.2-.6-2.87-4.06-5.74-8.12-8.62-12.17-.24-.33-.29-.52,.04-.85,1.13-1.17,2.15-2.44,3.02-3.82,4.1-6.45,5.61-13.49,4.5-21.02-.77-5.25-3.31-9.58-7.52-12.86C55.67,1.97,50.77,.53,45.52,.12c-2.8-.22-5.61-.08-8.41-.02-6.92,.15-13.84,.3-20.76,.45-4.84,.11-9.67,.23-14.5,.33-.61,.01-1.21,0-1.84,0,.07,.29,.23,.34,.34,.43,2.44,1.87,4.88,3.74,7.31,5.62,1,.78,2.07,1.48,2.93,2.43,2.76,3.07,3.67,6.62,2.62,10.63-.4,1.54-.79,3.07-1.17,4.6-.85,3.4-1.14,6.82-.44,10.29,1.46,7.19,5.61,12.23,12.27,15.21,3.81,1.7,7.84,2.35,11.99,2.39,4.35,.04,8.57-.59,12.62-2.07,.75-.27,1.49-.57,2.23-.9,.17-.07,.3-.08,.42,0,.03,.02,.06,.04,.09,.07,.58,.58,1.18,1.15,1.76,1.72,.36,.35,.35,.36-.12,.5-2.33,.69-4.66,1.37-7,2.06-.4,.12-.81,.25-1.3,.4,9.02,7.25,17.95,14.44,26.89,21.62,.02-.02,.03-.05,.05-.07-.08-.14-.17-.28-.26-.42ZM51.65,31.43c-.21,.48-.22,.48-.54,.03-1.83-2.58-3.66-5.16-5.48-7.75-.2-.3-.31-.33-.59-.06-3.24,3.26-6.49,6.51-9.75,9.75-.27,.26-.27,.41,0,.67,1.92,1.85,3.83,3.72,5.74,5.59,.02,.02,.03,.03,.05,.05,.07,.07,.16,.14,.23,.22h0c.05,.07,.09,.14,.12,.23-.56,.19-1.13,.26-1.7,.34-.43,.06-.87,.11-1.3,.14-2.08,.15-4.13-.07-6.11-.82-3.88-1.47-6.14-4.34-6.59-8.41-.62-5.55,.71-10.63,4.52-14.85,2.59-2.88,5.92-4.36,9.77-4.69,2.43-.21,4.81,.03,7.07,.99,3.52,1.51,5.52,4.25,6.08,7.99,.56,3.67-.08,7.19-1.53,10.58Z" style="fill: #007fff;"/>
        <path d="M51.13,49.52c-.13-.09-.25-.08-.42,0-.74,.33-1.48,.63-2.23,.9l-10.03-9.77c.43-.03,.87-.08,1.3-.14,.57-.08,1.14-.15,1.7-.34-.03-.08-.07-.16-.12-.22" style="fill: #0059b2;"/>
      </g>
      <g>
        <g>
          <path d="M97.08,50.76c-7.65,0-12.47-6.88-12.47-14.17s4.88-14.48,12.88-14.48c3.39,0,6.47,1.44,8.37,4.31l.21-3.54h6.62V59.95h-7.19v-13.4c-2.05,2.72-4.98,4.21-8.42,4.21Zm-5.13-14.32c0,3.95,2.52,7.85,6.83,7.85s6.83-3.8,6.83-7.85-2.46-7.85-6.83-7.85-6.83,3.8-6.83,7.85Z" style="fill: #001e3c;"/>
          <path d="M118.43,22.89h7.19v15.14c0,3.23,1.49,6.26,5.13,6.26s5.13-3.03,5.13-6.26v-15.14h7.19v14.99c0,7.39-4.57,12.88-12.42,12.88s-12.22-5.24-12.22-12.88v-14.99Z" style="fill: #001e3c;"/>
          <path d="M152.42,19.65c-2.26,0-4.11-1.8-4.11-4.11s1.75-4.11,4.11-4.11,4.11,1.69,4.11,4.11-1.75,4.11-4.11,4.11Zm-3.59,30.34V22.89h7.19v27.1h-7.19Z" style="fill: #001e3c;"/>
          <path d="M161.76,11.7h7.03v22.23l10.06-11.04h8.42l-11.29,12.01,12.53,15.09h-9.09l-10.62-13.5v13.5h-7.03V11.7Z" style="fill: #001e3c;"/>
          <path d="M191.59,11.7h7.03v22.23l10.06-11.04h8.42l-11.29,12.01,12.53,15.09h-9.09l-10.62-13.5v13.5h-7.03V11.7Z" style="fill: #001e3c;"/>
          <path d="M219.1,22.89h7.85l6.42,19.2,5.8-19.2h7.6l-11.14,29.67c-1.75,4.62-4.41,7.91-9.7,7.91-.92,0-1.8-.1-2.62-.26-.82-.21-1.59-.51-2.31-.92l1.39-5.65c.36,.15,.82,.31,1.33,.46,.51,.1,.97,.15,1.44,.15,.97,0,1.85-.26,2.62-.77,.72-.56,1.33-1.39,1.8-2.57l.46-1.18-10.93-26.85Z" style="fill: #001e3c;"/>
        </g>
        <g>
          <path d="M276.67,51.76h-12.53c-5.26,0-9.54-4.28-9.54-9.54v-12.53c0-5.26,4.28-9.54,9.54-9.54h12.53c5.26,0,9.54,4.28,9.54,9.54v12.53c0,5.26-4.28,9.54-9.54,9.54Zm-12.53-29.51c-4.1,0-7.44,3.34-7.44,7.44v12.53c0,4.1,3.34,7.43,7.44,7.43h12.53c4.1,0,7.43-3.33,7.43-7.43v-12.53c0-4.1-3.33-7.44-7.43-7.44h-12.53Z" style="fill: #001e3c;"/>
          <g>
            <path d="M262.37,29.03h2.32v8.03c0,2.01,1.1,3.7,3.3,3.7s3.3-1.61,3.3-3.7v-8.03h2.31v8.12c0,3.36-2.14,5.73-5.65,5.73s-5.58-2.24-5.58-5.73v-8.12Z" style="fill: #001e3c;"/>
            <path d="M276.11,42.5v-13.47h2.31v13.47h-2.31Z" style="fill: #001e3c;"/>
          </g>
        </g>
      </g>
    </g>
  </g>
</svg>