<?xml version="1.0" encoding="UTF-8"?>
<svg id="Layer_2" data-name="Layer 2" xmlns="http://www.w3.org/2000/svg" viewBox="0 0 71.51 75.91">
  <g id="Layer_1-2" data-name="Layer 1">
    <g>
      <path d="M71.25,75.41c-3.37-5.22-6.74-10.43-10.11-15.64q-.32-.5,.25-.71c2.29-.83,4.58-1.65,6.86-2.48,.5-.18,.5-.18,.2-.6-2.87-4.06-5.74-8.12-8.62-12.17-.24-.33-.29-.52,.04-.85,1.13-1.17,2.15-2.44,3.02-3.82,4.1-6.45,5.61-13.49,4.5-21.02-.77-5.25-3.31-9.58-7.52-12.86C55.67,1.97,50.77,.53,45.52,.12c-2.8-.22-5.61-.08-8.41-.02-6.92,.15-13.84,.3-20.76,.45-4.84,.11-9.67,.23-14.5,.33-.61,.01-1.21,0-1.84,0,.07,.29,.23,.34,.34,.43,2.44,1.87,4.88,3.74,7.31,5.62,1,.78,2.07,1.48,2.93,2.43,2.76,3.07,3.67,6.62,2.62,10.63-.4,1.54-.79,3.07-1.17,4.6-.85,3.4-1.14,6.82-.44,10.29,1.46,7.19,5.61,12.23,12.27,15.21,3.81,1.7,7.84,2.35,11.99,2.39,4.35,.04,8.57-.59,12.62-2.07,.75-.27,1.49-.57,2.23-.9,.17-.07,.3-.08,.42,0,.03,.02,.06,.04,.09,.07,.58,.58,1.18,1.15,1.76,1.72,.36,.35,.35,.36-.12,.5-2.33,.69-4.66,1.37-7,2.06-.4,.12-.81,.25-1.3,.4,9.02,7.25,17.95,14.44,26.89,21.62,.02-.02,.03-.05,.05-.07-.08-.14-.17-.28-.26-.42ZM51.65,31.43c-.21,.48-.22,.48-.54,.03-1.83-2.58-3.66-5.16-5.48-7.75-.2-.3-.31-.33-.59-.06-3.24,3.26-6.49,6.51-9.75,9.75-.27,.26-.27,.41,0,.67,1.92,1.85,3.83,3.72,5.74,5.59,.02,.02,.03,.03,.05,.05,.07,.07,.16,.14,.23,.22h0c.05,.07,.09,.14,.12,.23-.56,.19-1.13,.26-1.7,.34-.43,.06-.87,.11-1.3,.14-2.08,.15-4.13-.07-6.11-.82-3.88-1.47-6.14-4.34-6.59-8.41-.62-5.55,.71-10.63,4.52-14.85,2.59-2.88,5.92-4.36,9.77-4.69,2.43-.21,4.81,.03,7.07,.99,3.52,1.51,5.52,4.25,6.08,7.99,.56,3.67-.08,7.19-1.53,10.58Z" style="fill: #007fff;"/>
      <path d="M51.13,49.52c-.13-.09-.25-.08-.42,0-.74,.33-1.48,.63-2.23,.9l-10.03-9.77c.43-.03,.87-.08,1.3-.14,.57-.08,1.14-.15,1.7-.34-.03-.08-.07-.16-.12-.22" style="fill: #0059b2;"/>
    </g>
  </g>
</svg>